<svg xmlns="http://www.w3.org/2000/svg"
     width="30px" height="30px"
     viewBox="0 0 212.795 220.59"
     xml:space="preserve">
    <path fill="#ffd161"
          d="M172.628,67.883c0.599,15.267-4.278,29.379-12.827,40.529c-10.248,13.367-16.122,29.566-16.122,46.409v1.558  h-67.06v-0.925c0-16.782-5.299-33.259-15.667-46.456C52.601,98.369,47.621,84.963,47.621,70.4c0-34.843,28.507-63.039,63.478-62.521  C144.095,8.368,171.335,34.91,172.628,67.883"/>
    <path fill="#10003B"
          d="M143.678,158.379H76.62c-1.105,0-2-0.896-2-2v-0.925c0-16.652-5.412-32.712-15.239-45.221  C50.379,98.778,45.622,85.003,45.622,70.4c0-17.416,6.834-33.741,19.242-45.967C77.036,12.442,93.082,5.872,110.141,5.872  c0.329,0,0.659,0.002,0.988,0.007c16.474,0.244,32.108,6.775,44.02,18.389c11.915,11.617,18.833,27.079,19.478,43.538  c0.59,15.065-4.111,29.919-13.239,41.824c-10.276,13.404-15.709,29.031-15.709,45.192v1.558  C145.678,157.484,144.783,158.379,143.678,158.379 M78.612,154.379h63.067c0.099-16.891,5.811-33.197,16.535-47.184  c8.56-11.166,12.969-25.1,12.416-39.234c-1.259-32.094-27.421-57.605-59.561-58.083c-16.35-0.275-31.762,5.939-43.398,17.403  C56.031,38.75,49.622,54.064,49.622,70.4c0,13.698,4.462,26.618,12.903,37.363C72.691,120.703,78.383,137.219,78.612,154.379"/>
    <path fill="#10003B"
          d="M61.999,63.158c-0.156,0-0.314-0.018-0.472-0.056c-1.074-0.259-1.733-1.34-1.474-2.414  c3.592-14.86,13.538-27.281,27.287-34.078c0.993-0.49,2.19-0.083,2.68,0.906c0.489,0.991,0.083,2.19-0.907,2.68  c-12.684,6.271-21.859,17.728-25.172,31.432C63.72,62.543,62.901,63.158,61.999,63.158"/>
    <path fill="#10003B"
          d="M61.992,86.502c-0.902,0-1.721-0.614-1.942-1.531c-0.765-3.167-1.229-6.431-1.381-9.7  c-0.051-1.104,0.802-2.039,1.905-2.092c1.077-0.055,2.039,0.803,2.091,1.905c0.139,3.018,0.568,6.027,1.273,8.949  c0.259,1.073-0.401,2.155-1.475,2.413C62.305,86.485,62.147,86.502,61.992,86.502"/>
    <path fill="#52C0F5"
          d="M143.377,171.483H76.922c-4.171,0-7.552-3.381-7.552-7.552c0-4.17,3.381-7.552,7.552-7.552h66.455  c4.17,0,7.552,3.382,7.552,7.552C150.929,168.102,147.547,171.483,143.377,171.483"/>
    <path fill="#10003B"
          d="M143.377,173.484H76.922c-5.267,0-9.552-4.286-9.552-9.553s4.285-9.552,9.552-9.552h66.455  c5.267,0,9.552,4.285,9.552,9.552S148.644,173.484,143.377,173.484 M76.922,158.379c-3.062,0-5.552,2.49-5.552,5.552  s2.49,5.553,5.552,5.553h66.455c3.062,0,5.552-2.491,5.552-5.553s-2.49-5.552-5.552-5.552H76.922z"/>
    <path fill="#52C0F5"
          d="M139.005,186.586H81.293c-3.916,0-7.09-3.174-7.09-7.09v-0.923c0-3.916,3.174-7.091,7.09-7.091h57.712  c3.916,0,7.091,3.175,7.091,7.091v0.923C146.096,183.413,142.921,186.586,139.005,186.586"/>
    <path fill="#10003B"
          d="M139.005,188.587H81.293c-5.012,0-9.09-4.079-9.09-9.09v-0.924c0-5.013,4.078-9.091,9.09-9.091h57.712  c5.013,0,9.091,4.078,9.091,9.091v0.924C148.096,184.508,144.018,188.587,139.005,188.587 M81.293,173.483  c-2.807,0-5.09,2.284-5.09,5.091v0.924c0,2.806,2.283,5.09,5.09,5.09h57.712c2.807,0,5.091-2.284,5.091-5.09v-0.924  c0-2.807-2.284-5.091-5.091-5.091H81.293z"/>
    <path fill="#52C0F5"
          d="M139.302,192.972v2.329c0,3.534-2.863,6.389-6.389,6.389H87.386c-3.525,0-6.389-2.854-6.389-6.389v-2.329  c0-3.524,2.864-6.389,6.389-6.389h45.527C136.439,186.583,139.302,189.448,139.302,192.972"/>
    <path fill="#10003B"
          d="M132.913,203.69H87.386c-4.626,0-8.389-3.763-8.389-8.389v-2.329c0-4.626,3.763-8.389,8.389-8.389h45.527  c4.626,0,8.389,3.763,8.389,8.389v2.329C141.302,199.927,137.539,203.69,132.913,203.69 M87.386,188.583  c-2.42,0-4.389,1.969-4.389,4.389v2.329c0,2.42,1.969,4.389,4.389,4.389h45.527c2.42,0,4.389-1.969,4.389-4.389v-2.329  c0-2.42-1.969-4.389-4.389-4.389H87.386z"/>
    <path fill="#52C0F5"
          d="M121.178,201.69c0,6.09-4.938,11.028-11.028,11.028s-11.029-4.938-11.029-11.028H121.178z"/>
    <path fill="#10003B"
          d="M110.15,214.718c-7.184,0-13.029-5.844-13.029-13.028c0-1.104,0.896-2,2-2h22.057c1.104,0,2,0.896,2,2  C123.178,208.875,117.333,214.718,110.15,214.718 M101.345,203.69c0.912,4.021,4.514,7.028,8.805,7.028s7.892-3.008,8.804-7.028  H101.345z"/>
</svg>
