<svg width="20" height="20"
     viewBox="0 0 20 20"
     fill="none"
     xmlns="http://www.w3.org/2000/svg">
    <g clip-path="url(#clip0)">
        <path d="M19.4671 3.24666L16.7398 0.517103C16.0527 -0.170635 14.8573 -0.171956 14.1675 0.518424L1.94989 12.8566C1.89573 12.9112 1.85665 12.9783 1.83534 13.052L0.017202 19.4211C-0.028096 19.5797 0.0163071 19.7507 0.133068 19.8676C0.219616 19.9542 0.335481 20.0009 0.454458 20.0009C0.496176 20.0009 0.538364 19.9951 0.579187 19.9835L6.94277 18.1638C7.01645 18.1425 7.08348 18.1034 7.13807 18.0492L19.4671 5.81987C19.8107 5.47602 19.9998 5.01929 19.9998 4.53329C19.9998 4.04728 19.8107 3.59051 19.4671 3.24666ZM12.1867 3.82488L13.8599 5.49806L5.12433 14.2337L4.4974 12.9794C4.42014 12.8253 4.26303 12.7281 4.09079 12.7281H3.36286L12.1867 3.82488ZM1.11629 18.8845L1.70836 16.8119L3.18883 18.2923L1.11629 18.8845ZM6.36348 17.3854L4.18871 18.0067L1.99399 15.812L2.61525 13.6372H3.80975L4.5932 15.2042C4.63713 15.2921 4.70859 15.3635 4.79651 15.4075L6.36344 16.1909V17.3854H6.36348ZM7.2726 16.6379V15.91C7.2726 15.7377 7.1754 15.5806 7.02135 15.5033L5.76707 14.8764L14.5026 6.14084L16.1758 7.81401L7.2726 16.6379ZM18.8257 5.18779L16.8214 7.17413L12.8266 3.17925L14.8116 1.17637C15.1552 0.832783 15.7535 0.832783 16.0971 1.17637L18.8244 3.90363C18.9961 4.07541 19.0907 4.30356 19.0907 4.54637C19.0907 4.78918 18.9961 5.01733 18.8257 5.18779Z"
              fill="#ADADAD"/>
    </g>
    <defs>
        <clipPath id="clip0">
            <rect width="20" height="20"
                  fill="white"/>
        </clipPath>
    </defs>
</svg>
