<svg xmlns="http://www.w3.org/2000/svg"
     width="18" height="18"
     fill="none">
    <rect width="18" height="18"
          rx="2"
          fill="white"/>
    <path fill-rule="evenodd"
          d="M11.03 10.75h.052l.27.117 1.153.446c.545.216 1.178.426 1.776.57.682.163 1.015 1.723 1.148 2.572.045.292-.184.545-.48.545H3.05c-.295 0-.524-.253-.48-.545.132-.85.466-2.41 1.148-2.572.6-.144 1.232-.354 1.79-.56l1.138-.455.507-.224v-.736c-.628-.52-.896-1.274-1-1.91-.153-.01-.356-.215-.574-.94-.298-.993.018-1.14.286-1.116A2.39 2.39 0 0 1 5.8 4.43c.14-.56.46-1.007.818-1.353.227-.228.484-.427.757-.6.222-.146.467-.27.735-.355.2-.067.433-.1.67-.12.73-.06 1.282.113 1.678.334.592.308.817.716.817.716s1.49.1.838 3.046c.2.065.342.325.1 1.1-.286.953-.546 1.006-.702.905-.105.558-.326 1.203-.81 1.687v.837l.318.113z"
          fill="black"
          fill-opacity=".8"/>
</svg>
