<svg width="28"
     height="28"
     viewBox="0 0 28 28"
     xmlns="http://www.w3.org/2000/svg">
    <g clip-path="url(#clip0)">
        <path d="M14 4.03316C13.517 4.03316 13.125 3.64116 13.125 3.15816V0.874992C13.125 0.391992 13.517 -7.62939e-06 14 -7.62939e-06C14.483 -7.62939e-06 14.875 0.391992 14.875 0.874992V3.15816C14.875 3.64116 14.483 4.03316 14 4.03316Z"
              fill="#FFDA00"/>
        <path d="M21.6662 7.20883C21.4422 7.20883 21.2182 7.12367 21.0479 6.95217C20.706 6.61033 20.706 6.05617 21.0479 5.71433L22.6625 4.09967C23.0044 3.75783 23.5585 3.75783 23.9004 4.09967C24.2422 4.4415 24.2422 4.99567 23.9004 5.3375L22.2857 6.95217C22.1142 7.1225 21.8902 7.20883 21.6662 7.20883Z"
              fill="#FFDA00"/>
        <path d="M27.125 14.875H24.8418C24.3588 14.875 23.9668 14.483 23.9668 14C23.9668 13.517 24.3588 13.125 24.8418 13.125H27.125C27.608 13.125 28 13.517 28 14C28 14.483 27.608 14.875 27.125 14.875Z"
              fill="#FFDA00"/>
        <path d="M23.2809 24.1558C23.0569 24.1558 22.8329 24.0707 22.6625 23.8992L21.0479 22.2845C20.706 21.9427 20.706 21.3885 21.0479 21.0467C21.3897 20.7048 21.9439 20.7048 22.2857 21.0467L23.9004 22.6613C24.2422 23.0032 24.2422 23.5573 23.9004 23.8992C23.7289 24.0707 23.5049 24.1558 23.2809 24.1558Z"
              fill="#FFDA00"/>
        <path d="M4.71919 24.1558C4.49519 24.1558 4.27119 24.0707 4.10086 23.8992C3.75902 23.5573 3.75902 23.0032 4.10086 22.6613L5.71552 21.0467C6.05735 20.7048 6.61152 20.7048 6.95335 21.0467C7.29518 21.3885 7.29518 21.9427 6.95335 22.2845L5.33869 23.8992C5.16719 24.0707 4.94319 24.1558 4.71919 24.1558Z"
              fill="#FFDA00"/>
        <path d="M3.15817 14.875H0.875C0.392 14.875 0 14.483 0 14C0 13.517 0.392 13.125 0.875 13.125H3.15817C3.64117 13.125 4.03317 13.517 4.03317 14C4.03317 14.483 3.64117 14.875 3.15817 14.875Z" fill="#FFDA00"/>
        <path d="M6.33385 7.20883C6.10985 7.20883 5.88585 7.12367 5.71552 6.95217L4.10086 5.3375C3.75902 4.99567 3.75902 4.4415 4.10086 4.09967C4.44269 3.75783 4.99686 3.75783 5.33869 4.09967L6.95335 5.71433C7.29518 6.05617 7.29518 6.61033 6.95335 6.95217C6.78068 7.1225 6.55785 7.20883 6.33385 7.20883Z"
              fill="#FFDA00"/>
        <path d="M17.5 24.5V25.9583C17.5 27.0783 16.5783 28 15.4583 28H12.5417C11.5617 28 10.5 27.2533 10.5 25.62V24.5H17.5Z"
              fill="#FFDA00"/>
        <path d="M19.145 7.65333C17.2316 6.10167 14.7116 5.495 12.25 6.02C9.15829 6.66167 6.64995 9.18166 6.00829 12.2733C5.35495 15.4467 6.54495 18.5967 9.08829 20.5217C9.77662 21.035 10.255 21.8283 10.4183 22.75V22.7617C10.4416 22.75 10.4766 22.75 10.5 22.75H17.5C17.5233 22.75 17.535 22.75 17.5583 22.7617V22.75C17.7216 21.8633 18.2466 21.0467 19.0516 20.4167C21.0233 18.8533 22.1666 16.52 22.1666 14C22.1666 11.5267 21.07 9.21666 19.145 7.65333ZM18.375 14.5833C17.8966 14.5833 17.5 14.1867 17.5 13.7083C17.5 11.935 16.065 10.5 14.2916 10.5C13.8133 10.5 13.4166 10.1033 13.4166 9.625C13.4166 9.14666 13.8133 8.75 14.2916 8.75C17.0216 8.75 19.25 10.9783 19.25 13.7083C19.25 14.1867 18.8533 14.5833 18.375 14.5833Z"
              fill="#FFDA00"/>
        <path d="M10.4183 22.75H10.5C10.4767 22.75 10.4417 22.75 10.4183 22.7617V22.75Z"
              fill="#FFDA00"/>
        <path d="M17.5583 22.75V22.7617C17.535 22.75 17.5233 22.75 17.5 22.75H17.5583Z"
              fill="#FFDA00"/>
    </g>
    <defs>
        <clipPath id="clip0">
            <rect width="28"
                  height="28"
                  fill="white"/>
        </clipPath>
    </defs>
</svg>
